<?xml version="1.0" encoding="iso-8859-1"?>
<!-- Uploaded to: SVG Repo, www.svgrepo.com, Generator: SVG Repo Mixer Tools -->
<svg height="800px" width="800px" version="1.1" id="Layer_1" xmlns="http://www.w3.org/2000/svg" xmlns:xlink="http://www.w3.org/1999/xlink" 
	 viewBox="0 0 509.242 509.242" xml:space="preserve">
<path style="fill:#13A289;" d="M502.421,203.242c0-4.4-3.6-8-8-8h-484c-4.4,0-8,3.6-8,8v16.4c0,4.4,3.6,8,8,8h484c4.4,0,8-3.6,8-8
	V203.242L502.421,203.242z"/>
<g>
	<path style="fill:#61C2AB;" d="M346.821,213.242c1.2,0,2.4-0.4,4-0.8c6-2,9.6-8.8,7.2-15.2l-63.2-185.6c-2-6-8.8-9.6-15.2-7.2
		c-6,2-9.6,8.8-7.2,15.2l63.2,185.6C337.221,210.042,341.621,213.242,346.821,213.242z"/>
	<path style="fill:#61C2AB;" d="M240.021,4.442c-6-2-12.8,1.2-15.2,7.2l-62,181.6l-1.2,4c-2,6,1.2,12.8,7.2,15.2
		c1.2,0.4,2.4,0.8,4,0.8c4.8,0,9.6-3.2,11.2-8l2.8-8.8l60-176.8C249.621,13.642,246.421,6.842,240.021,4.442z"/>
	<path style="fill:#61C2AB;" d="M32.821,471.642c1.2,17.2,16.4,31.6,34,31.6h378.8c17.2,0,32.4-14,34-31.6l17.6-244.4h-19.6h-39.6
		h-422L32.821,471.642z M394.421,276.042c0-6.4,5.6-12,12-12s12,5.2,12,12v185.2c0,6.4-5.6,12-12,12s-12-5.2-12-12V276.042z
		 M318.421,276.042c0-6.4,5.6-12,12-12s12,5.2,12,12v185.2c0,6.4-5.6,12-12,12s-12-5.2-12-12V276.042z M242.421,276.042
		c0-6.4,5.6-12,12-12c6.4,0,12,5.2,12,12v185.2c0,6.4-5.6,12-12,12c-6.4,0-12-5.2-12-12V276.042z M170.421,276.042
		c0-6.4,3.6-12,10-12s10,5.2,10,12v185.2c0,6.4-3.6,12-10,12s-10-5.2-10-12V276.042z M94.421,276.042c0-6.4,5.6-12,12-12
		s12,5.2,12,12v185.2c0,6.4-5.6,12-12,12s-12-5.2-12-12V276.042z"/>
</g>
<g>
	<path style="fill:#F4EFEF;" d="M254.421,469.642c6.4,0,12-5.2,12-12v-185.2c0-6.4-5.6-12-12-12c-6.4,0-12,5.2-12,12v185.2
		C242.421,464.042,248.021,469.642,254.421,469.642z"/>
	<path style="fill:#F4EFEF;" d="M180.421,469.642c6.4,0,10-5.2,10-12v-185.2c0-6.4-3.6-12-10-12s-10,5.2-10,12v185.2
		C170.421,464.042,174.021,469.642,180.421,469.642z"/>
	<path style="fill:#F4EFEF;" d="M106.421,469.642c6.4,0,12-5.2,12-12v-185.2c0-6.4-5.6-12-12-12s-12,5.2-12,12v185.2
		C94.421,464.042,100.021,469.642,106.421,469.642z"/>
	<path style="fill:#F4EFEF;" d="M406.421,469.642c6.4,0,12-5.2,12-12v-185.2c0-6.4-5.6-12-12-12s-12,5.2-12,12v185.2
		C394.421,464.042,400.021,469.642,406.421,469.642z"/>
	<path style="fill:#F4EFEF;" d="M330.421,469.642c6.4,0,12-5.2,12-12v-185.2c0-6.4-5.6-12-12-12s-12,5.2-12,12v185.2
		C318.421,464.042,324.021,469.642,330.421,469.642z"/>
</g>
<path d="M330.821,201.242h-142c-2.4,0-4-1.6-4-4s1.6-4,4-4h142c2.4,0,4,1.6,4,4S333.221,201.242,330.821,201.242z"/>
<path d="M442.421,233.242h-423.2c-6,0-18.8-9.2-18.8-16.4v-15.6c0-1.6,0.8-3.2,2-4.4c3.2-3.2,9.6-3.2,16-3.2h0.8h139.2
	c2.4,0,4,1.6,4,4s-1.6,4-4,4h-140c-5.2,0-8.4,0.4-10,0.8v14.8c0.4,2.4,8,8,10.8,8.4h423.2c2.4,0,4,1.6,4,4
	S444.821,233.242,442.421,233.242z"/>
<path d="M500.421,233.242h-18c-2.4,0-4-1.6-4-4s1.6-4,4-4h17.6c0.4-1.6,0.4-5.6,0.4-7.2v-16.8h-142c-2.4,0-4-1.6-4-4s1.6-4,4-4
	h143.2c2,0,4,0,5.6,1.6s1.6,3.6,1.6,5.2v16.8v1.2c0,4.4,0,10-3.2,13.2C504.021,232.442,502.421,233.242,500.421,233.242z"/>
<path d="M449.221,509.242h-378.8c-18.8,0-36.4-17.6-37.6-37.2l-17.6-242.4c0-2.4,1.6-4,3.6-4.4c2.4,0,4,1.6,4.4,3.6l17.6,242.4
	c1.2,16,15.2,30,30,30h378.8c14.8,0,28.8-14,30-30l17.6-241.2c0-2.4,2-4,4.4-3.6c2.4,0,4,2,3.6,4.4l-17.6,241.2
	C485.621,492.042,468.421,509.242,449.221,509.242z"/>
<path d="M346.821,217.242c-6.8,0-12.8-4.4-14.8-10.8l-63.2-185.6c-1.2-4-1.2-8.4,0.8-12s5.2-6.8,9.2-8c8.4-2.8,17.2,1.6,20,10
	l63.2,185.6c1.2,4,1.2,8.4-0.8,12s-5.2,6.8-9.2,8C350.021,216.842,348.421,217.242,346.821,217.242z M283.621,8.042
	c-0.8,0-1.6,0-2.4,0.4c-2,0.8-3.6,2-4.4,4c-0.8,2-1.2,4-0.4,6l63.2,185.6c1.2,4,6,6.4,10,4.8c2-0.8,3.6-2,4.4-4c0.8-2,1.2-4,0.4-6
	l-63.2-185.6C290.021,10.042,286.821,8.042,283.621,8.042z"/>
<path d="M173.221,217.242c-1.6,0-3.6-0.4-5.2-0.8c-4-1.2-7.2-4-9.2-8c-2-3.6-2-8-0.8-12l63.2-185.6c1.2-4,4.4-7.2,8-9.2
	c4-2,8-2,12-0.8s7.2,4.4,9.2,8s2,8,0.8,12l-63.2,185.6C186.021,212.842,180.021,217.242,173.221,217.242z M236.421,8.042
	c-1.2,0-2.4,0.4-3.6,0.8c-2,0.8-3.2,2.4-4,4.4l-63.2,185.6c-0.8,2-0.4,4,0.4,6c0.8,2,2.4,3.2,4.4,4c4,1.2,8.4-0.8,10-4.8l63.2-185.6
	c0.8-2,0.4-4-0.4-6c-0.8-2-2.4-3.2-4.4-4C238.021,8.042,237.221,8.042,236.421,8.042z"/>
<path d="M252.421,473.642c-8.8,0-16-7.2-16-16v-185.2c0-8.8,7.2-16,16-16c8.8,0,16,7.2,16,16v185.2
	C268.421,466.442,261.221,473.642,252.421,473.642z M252.421,264.442c-4.4,0-8,3.6-8,8v185.2c0,4.4,3.6,8,8,8c4.4,0,8-3.6,8-8
	v-185.2C260.421,268.042,256.821,264.442,252.421,264.442z"/>
<path d="M180.021,473.642c-8.8,0-15.6-6.8-15.6-16v-185.2c0-8.8,7.2-16,16-16s16,7.2,16,16v185.2
	C196.421,466.042,188.821,473.642,180.021,473.642z M180.421,264.442c-4.4,0-8,3.6-8,8v185.2c0,4.4,3.2,8,7.6,8c4.4,0,8.4-3.6,8.4-8
	v-185.2C188.421,268.042,184.821,264.442,180.421,264.442z"/>
<path d="M104.421,473.642c-8.8,0-16-7.2-16-16v-185.2c0-8.8,7.2-16,16-16s16,7.2,16,16v185.2
	C120.421,466.442,113.221,473.642,104.421,473.642z M104.421,264.442c-4.4,0-8,3.6-8,8v185.2c0,4.4,3.6,8,8,8s8-3.6,8-8v-185.2
	C112.421,268.042,108.821,264.442,104.421,264.442z"/>
<path d="M404.421,473.642c-8.8,0-16-7.2-16-16v-185.2c0-8.8,7.2-16,16-16s16,7.2,16,16v185.2
	C420.421,466.442,413.221,473.642,404.421,473.642z M404.421,264.442c-4.4,0-8,3.6-8,8v185.2c0,4.4,3.6,8,8,8s8-3.6,8-8v-185.2
	C412.421,268.042,408.821,264.442,404.421,264.442z"/>
<path d="M328.421,473.642c-8.8,0-16-7.2-16-16v-185.2c0-8.8,7.2-16,16-16s16,7.2,16,16v185.2
	C344.421,466.442,337.221,473.642,328.421,473.642z M328.421,264.442c-4.4,0-8,3.6-8,8v185.2c0,4.4,3.6,8,8,8s8-3.6,8-8v-185.2
	C336.421,268.042,332.821,264.442,328.421,264.442z"/>
</svg>